<mxfile host="app.diagrams.net" modified="2024-05-18T17:21:26.199Z" agent="Mozilla/5.0 (Windows NT 10.0; Win64; x64; rv:126.0) Gecko/20100101 Firefox/126.0" etag="8TNBCAfpZLufMaVNpCKx" version="24.4.4" type="device">
  <diagram name="Sayfa -1" id="ueloSB-Wy7mb0JgrD49_">
    <mxGraphModel dx="1434" dy="774" grid="1" gridSize="10" guides="1" tooltips="1" connect="1" arrows="1" fold="1" page="1" pageScale="1" pageWidth="827" pageHeight="1169" math="0" shadow="0">
      <root>
        <mxCell id="0" />
        <mxCell id="1" parent="0" />
        <mxCell id="XTayvKzsqt5uggZFpG54-5" style="edgeStyle=orthogonalEdgeStyle;rounded=0;orthogonalLoop=1;jettySize=auto;html=1;entryX=0.5;entryY=0;entryDx=0;entryDy=0;" parent="1" source="XTayvKzsqt5uggZFpG54-1" target="XTayvKzsqt5uggZFpG54-4" edge="1">
          <mxGeometry relative="1" as="geometry" />
        </mxCell>
        <mxCell id="XTayvKzsqt5uggZFpG54-8" style="edgeStyle=orthogonalEdgeStyle;rounded=0;orthogonalLoop=1;jettySize=auto;html=1;" parent="1" source="XTayvKzsqt5uggZFpG54-1" target="XTayvKzsqt5uggZFpG54-6" edge="1">
          <mxGeometry relative="1" as="geometry" />
        </mxCell>
        <mxCell id="XTayvKzsqt5uggZFpG54-9" style="edgeStyle=orthogonalEdgeStyle;rounded=0;orthogonalLoop=1;jettySize=auto;html=1;" parent="1" source="XTayvKzsqt5uggZFpG54-1" target="XTayvKzsqt5uggZFpG54-7" edge="1">
          <mxGeometry relative="1" as="geometry" />
        </mxCell>
        <mxCell id="XTayvKzsqt5uggZFpG54-11" style="edgeStyle=orthogonalEdgeStyle;rounded=0;orthogonalLoop=1;jettySize=auto;html=1;entryX=0.5;entryY=1;entryDx=0;entryDy=0;" parent="1" source="XTayvKzsqt5uggZFpG54-1" target="XTayvKzsqt5uggZFpG54-10" edge="1">
          <mxGeometry relative="1" as="geometry" />
        </mxCell>
        <mxCell id="XTayvKzsqt5uggZFpG54-1" value="users" style="rounded=0;whiteSpace=wrap;html=1;" parent="1" vertex="1">
          <mxGeometry x="260" y="170" width="120" height="60" as="geometry" />
        </mxCell>
        <mxCell id="XTayvKzsqt5uggZFpG54-4" value="username" style="ellipse;whiteSpace=wrap;html=1;" parent="1" vertex="1">
          <mxGeometry x="110" y="270" width="120" height="80" as="geometry" />
        </mxCell>
        <mxCell id="XTayvKzsqt5uggZFpG54-6" value="pasword" style="ellipse;whiteSpace=wrap;html=1;" parent="1" vertex="1">
          <mxGeometry x="260" y="270" width="120" height="80" as="geometry" />
        </mxCell>
        <mxCell id="XTayvKzsqt5uggZFpG54-7" value="point" style="ellipse;whiteSpace=wrap;html=1;" parent="1" vertex="1">
          <mxGeometry x="413.5" y="270" width="120" height="80" as="geometry" />
        </mxCell>
        <mxCell id="XTayvKzsqt5uggZFpG54-10" value="user_id (PK)" style="ellipse;whiteSpace=wrap;html=1;" parent="1" vertex="1">
          <mxGeometry x="260" y="50" width="120" height="80" as="geometry" />
        </mxCell>
        <mxCell id="XTayvKzsqt5uggZFpG54-16" style="edgeStyle=orthogonalEdgeStyle;rounded=0;orthogonalLoop=1;jettySize=auto;html=1;entryX=0.5;entryY=0;entryDx=0;entryDy=0;" parent="1" source="XTayvKzsqt5uggZFpG54-12" target="XTayvKzsqt5uggZFpG54-13" edge="1">
          <mxGeometry relative="1" as="geometry" />
        </mxCell>
        <mxCell id="XTayvKzsqt5uggZFpG54-22" style="edgeStyle=orthogonalEdgeStyle;rounded=0;orthogonalLoop=1;jettySize=auto;html=1;entryX=0.5;entryY=0;entryDx=0;entryDy=0;" parent="1" source="XTayvKzsqt5uggZFpG54-12" target="XTayvKzsqt5uggZFpG54-14" edge="1">
          <mxGeometry relative="1" as="geometry" />
        </mxCell>
        <mxCell id="XTayvKzsqt5uggZFpG54-23" style="edgeStyle=orthogonalEdgeStyle;rounded=0;orthogonalLoop=1;jettySize=auto;html=1;entryX=0.5;entryY=0;entryDx=0;entryDy=0;" parent="1" source="XTayvKzsqt5uggZFpG54-12" target="XTayvKzsqt5uggZFpG54-21" edge="1">
          <mxGeometry relative="1" as="geometry" />
        </mxCell>
        <mxCell id="XTayvKzsqt5uggZFpG54-12" value="users_quests" style="rounded=0;whiteSpace=wrap;html=1;" parent="1" vertex="1">
          <mxGeometry x="810" y="170" width="120" height="60" as="geometry" />
        </mxCell>
        <mxCell id="XTayvKzsqt5uggZFpG54-13" value="user_id (FK)" style="ellipse;whiteSpace=wrap;html=1;" parent="1" vertex="1">
          <mxGeometry x="660" y="270" width="120" height="80" as="geometry" />
        </mxCell>
        <mxCell id="XTayvKzsqt5uggZFpG54-14" value="status" style="ellipse;whiteSpace=wrap;html=1;" parent="1" vertex="1">
          <mxGeometry x="960" y="270" width="120" height="80" as="geometry" />
        </mxCell>
        <mxCell id="XTayvKzsqt5uggZFpG54-21" value="quest_id (FK)" style="ellipse;whiteSpace=wrap;html=1;" parent="1" vertex="1">
          <mxGeometry x="810" y="270" width="120" height="80" as="geometry" />
        </mxCell>
        <mxCell id="XTayvKzsqt5uggZFpG54-28" style="edgeStyle=orthogonalEdgeStyle;rounded=0;orthogonalLoop=1;jettySize=auto;html=1;" parent="1" source="XTayvKzsqt5uggZFpG54-24" target="XTayvKzsqt5uggZFpG54-26" edge="1">
          <mxGeometry relative="1" as="geometry" />
        </mxCell>
        <mxCell id="XTayvKzsqt5uggZFpG54-29" style="edgeStyle=orthogonalEdgeStyle;rounded=0;orthogonalLoop=1;jettySize=auto;html=1;" parent="1" source="XTayvKzsqt5uggZFpG54-24" target="XTayvKzsqt5uggZFpG54-25" edge="1">
          <mxGeometry relative="1" as="geometry" />
        </mxCell>
        <mxCell id="XTayvKzsqt5uggZFpG54-31" style="edgeStyle=orthogonalEdgeStyle;rounded=0;orthogonalLoop=1;jettySize=auto;html=1;" parent="1" source="XTayvKzsqt5uggZFpG54-24" target="XTayvKzsqt5uggZFpG54-30" edge="1">
          <mxGeometry relative="1" as="geometry" />
        </mxCell>
        <mxCell id="SdU_1uvCdc88GAGbuNCC-2" style="edgeStyle=orthogonalEdgeStyle;rounded=0;orthogonalLoop=1;jettySize=auto;html=1;entryX=0.5;entryY=0;entryDx=0;entryDy=0;" edge="1" parent="1" source="XTayvKzsqt5uggZFpG54-24" target="SdU_1uvCdc88GAGbuNCC-1">
          <mxGeometry relative="1" as="geometry" />
        </mxCell>
        <mxCell id="XTayvKzsqt5uggZFpG54-24" value="quests" style="rounded=0;whiteSpace=wrap;html=1;" parent="1" vertex="1">
          <mxGeometry x="1320" y="170" width="120" height="60" as="geometry" />
        </mxCell>
        <mxCell id="XTayvKzsqt5uggZFpG54-25" value="quest_id (PK)" style="ellipse;whiteSpace=wrap;html=1;" parent="1" vertex="1">
          <mxGeometry x="1320" y="30" width="120" height="80" as="geometry" />
        </mxCell>
        <mxCell id="XTayvKzsqt5uggZFpG54-26" value="quest_name" style="ellipse;whiteSpace=wrap;html=1;" parent="1" vertex="1">
          <mxGeometry x="1170" y="270" width="120" height="80" as="geometry" />
        </mxCell>
        <mxCell id="XTayvKzsqt5uggZFpG54-30" value="quest_point" style="ellipse;whiteSpace=wrap;html=1;" parent="1" vertex="1">
          <mxGeometry x="1470" y="270" width="120" height="80" as="geometry" />
        </mxCell>
        <mxCell id="SdU_1uvCdc88GAGbuNCC-1" value="quest_difficulty" style="ellipse;whiteSpace=wrap;html=1;" vertex="1" parent="1">
          <mxGeometry x="1320" y="270" width="120" height="80" as="geometry" />
        </mxCell>
      </root>
    </mxGraphModel>
  </diagram>
</mxfile>
